<svg xmlns="http://www.w3.org/2000/svg" viewBox="0 0 310 310" fill="#fff"><path d="M72.2 99.7H9.9c-2.8 0-5 2.2-5 5v199.9c0 2.8 2.2 5 5 5h62.2c2.8 0 5-2.2 5-5V104.7c.1-2.7-2.2-5-4.9-5zM41.1.3C18.4.3 0 18.7 0 41.4c0 22.6 18.4 41 41.1 41 22.6 0 41-18.4 41-41C82.1 18.7 63.7.3 41.1.3zm189.4 94.5c-25 0-43.5 10.7-54.7 23v-13c0-2.8-2.2-5-5-5h-59.6c-2.8 0-5 2.2-5 5v199.9c0 2.8 2.2 5 5 5h62.1c2.8 0 5-2.2 5-5v-98.9c0-33.3 9.1-46.3 32.3-46.3 25.3 0 27.3 20.8 27.3 48v97.2c0 2.8 2.2 5 5 5H305c2.8 0 5-2.2 5-5V195c0-49.6-9.5-100.2-79.5-100.2z"/></svg>